<svg xmlns="http://www.w3.org/2000/svg" width="60" height="60" fill="none"><path fill="#fff" fill-rule="evenodd" d="m30 9.374 18.184.514a6.46 6.46 0 0 1 6.236 5.724 93.586 93.586 0 0 1 0 21.276 6.46 6.46 0 0 1-6.236 5.724l-15.059.425v5.088H42.5a1.875 1.875 0 0 1 0 3.75h-25a1.875 1.875 0 1 1 0-3.75h9.375v-5.088l-15.06-.425a6.46 6.46 0 0 1-6.235-5.724 93.583 93.583 0 0 1 0-21.276 6.46 6.46 0 0 1 6.236-5.724L30 9.374ZM12.5 34.375a1.875 1.875 0 1 0 0 3.75h35a1.875 1.875 0 1 0 0-3.75h-35Z" clip-rule="evenodd"/></svg>