<svg xmlns="http://www.w3.org/2000/svg" width="30" height="30" fill="none"><path fill="#000" fill-rule="evenodd" d="M18.118 4.063H10.625a.937.937 0 1 0 0 1.875h.325v6.326c-5.565 2.63-6.369 10.3-1.367 14.01l.368.274a8.475 8.475 0 0 0 10.098 0l.368-.274c5.002-3.71 4.198-11.38-1.367-14.01V5.938h.325a.937.937 0 1 0 0-1.875h-1.257Zm-8.247 11.25H20.13a6.337 6.337 0 0 0-2.095-1.45 1.422 1.422 0 0 1-.859-1.307V5.938h-4.35v6.618c0 .568-.338 1.081-.86 1.306-.829.358-1.529.857-2.094 1.45ZM12.5 21.25a1.25 1.25 0 1 0 0 2.5 1.25 1.25 0 0 0 0-2.5ZM15 20a1.25 1.25 0 1 1 2.5 0 1.25 1.25 0 0 1-2.5 0Z" clip-rule="evenodd"/></svg>