<svg xmlns="http://www.w3.org/2000/svg" width="20" height="20" fill="none"><path fill="#fff" d="M10 1.807h4.096c.964 0 1.446.241 1.808.362.482.24.843.361 1.204.723.362.361.603.722.723 1.204.12.362.241.844.362 1.808v8.192c0 .964-.241 1.446-.362 1.808-.24.482-.361.843-.723 1.204-.361.362-.723.603-1.204.723-.362.12-.844.241-1.808.362H5.904c-.964 0-1.446-.241-1.808-.362-.482-.24-.843-.361-1.204-.723-.362-.361-.603-.723-.723-1.204-.12-.362-.241-.844-.362-1.808V5.904c0-.964.241-1.446.362-1.808.24-.482.361-.843.723-1.204.361-.362.722-.603 1.204-.723.362-.12.844-.241 1.808-.362H10ZM10 0H5.904c-1.085 0-1.808.241-2.41.482a5.26 5.26 0 0 0-1.807 1.205C1.084 2.289.843 2.77.482 3.494.24 4.096.12 4.819 0 5.904v8.192c0 1.085.241 1.808.482 2.41a5.262 5.262 0 0 0 1.205 1.807c.602.603 1.084.844 1.807 1.205.602.241 1.325.361 2.41.482h8.192c1.085 0 1.808-.241 2.41-.482a5.263 5.263 0 0 0 1.807-1.205c.603-.602.844-1.084 1.205-1.807.241-.602.361-1.325.482-2.41V5.904c0-1.085-.241-1.808-.482-2.41a5.261 5.261 0 0 0-1.205-1.807c-.602-.603-1.084-.844-1.807-1.205C15.904.24 15.181.12 14.096 0H10Z"/><path fill="#fff" d="M10 4.82A5.142 5.142 0 0 0 4.82 10c0 2.892 2.288 5.18 5.18 5.18s5.18-2.288 5.18-5.18S12.893 4.82 10 4.82Zm0 8.553A3.368 3.368 0 0 1 6.627 10 3.368 3.368 0 0 1 10 6.627 3.368 3.368 0 0 1 13.373 10c0 1.807-1.566 3.373-3.373 3.373Zm5.301-7.469a1.205 1.205 0 1 0 0-2.41 1.205 1.205 0 0 0 0 2.41Z"/></svg>