<svg xmlns="http://www.w3.org/2000/svg" width="22" height="22" fill="none"><path fill="#000" d="M11 8.937a2.063 2.063 0 1 0 0 4.125 2.063 2.063 0 0 0 0-4.125Z"/><path fill="#000" fill-rule="evenodd" d="M11 5.042c-2.4 0-4.558.963-6.113 2.157-.778.597-1.417 1.261-1.865 1.907-.44.633-.73 1.3-.73 1.894 0 .594.29 1.26.73 1.894.448.646 1.087 1.31 1.865 1.907C6.442 15.995 8.6 16.958 11 16.958c2.4 0 4.558-.963 6.113-2.157.778-.598 1.417-1.261 1.865-1.907.44-.633.73-1.3.73-1.894 0-.595-.29-1.26-.73-1.894-.448-.646-1.087-1.31-1.865-1.907C15.558 6.005 13.4 5.042 11 5.042ZM7.563 11a3.438 3.438 0 1 1 6.875 0 3.438 3.438 0 0 1-6.875 0Z" clip-rule="evenodd"/></svg>