<svg xmlns="http://www.w3.org/2000/svg" width="22" height="22" fill="none"><path fill="#4285F4" fill-rule="evenodd" d="M21.277 11.239c0-.745-.067-1.46-.19-2.148h-9.89v4.061h5.651a4.83 4.83 0 0 1-2.095 3.17v2.634h3.393c1.986-1.828 3.131-4.52 3.131-7.717Z" clip-rule="evenodd"/><path fill="#34A853" fill-rule="evenodd" d="M11.198 21.5c2.835 0 5.212-.94 6.949-2.544l-3.394-2.634c-.94.63-2.143 1.002-3.555 1.002-2.735 0-5.05-1.847-5.876-4.329H1.814v2.72a10.496 10.496 0 0 0 9.384 5.785Z" clip-rule="evenodd"/><path fill="#FBBC05" fill-rule="evenodd" d="M5.322 12.995A6.311 6.311 0 0 1 4.992 11c0-.692.12-1.365.33-1.995v-2.72H1.814A10.496 10.496 0 0 0 .697 11c0 1.694.406 3.298 1.117 4.716l3.508-2.72Z" clip-rule="evenodd"/><path fill="#EA4335" fill-rule="evenodd" d="M11.198 4.676c1.541 0 2.925.53 4.013 1.57l3.012-3.011C16.405 1.54 14.028.5 11.198.5a10.496 10.496 0 0 0-9.384 5.785l3.508 2.72c.826-2.482 3.14-4.329 5.876-4.329Z" clip-rule="evenodd"/></svg>