<svg xmlns="http://www.w3.org/2000/svg" width="30" height="30" fill="none"><path fill="#000" d="M9.25 6.563c-3.476 0-6.438 2.599-6.438 5.974 0 2.329 1.09 4.29 2.536 5.914 1.44 1.618 3.298 2.976 4.978 4.113l2.899 1.962a.938.938 0 0 0 1.05 0l2.899-1.961a48.6 48.6 0 0 0 1.646-1.16.372.372 0 0 0 .111-.465l-1.702-3.44a.25.25 0 0 0-.417-.048l-.09.11a2.5 2.5 0 0 1-1.93.91H12.5a2.5 2.5 0 0 1 0-5h.877a.5.5 0 0 0 .386-.183l1.965-2.381a2.5 2.5 0 0 1 4.2.55l1.004 2.189c.106.23.405.29.623.163a2.498 2.498 0 0 1 1.258-.339h1.485c.189 0 .35-.14.365-.328.016-.2.024-.402.024-.607 0-3.375-2.96-5.975-6.437-5.975-1.792 0-3.369.84-4.5 1.928-1.131-1.087-2.708-1.928-4.5-1.928Z"/><path fill="#000" d="M18.509 12.11a.938.938 0 0 0-1.576-.207l-2.583 3.132H12.5a.938.938 0 0 0 0 1.875h2.292c.28 0 .545-.125.723-.341l1.912-2.318 2.242 4.89a.938.938 0 0 0 1.575.206l2.01-2.437h2.996a.937.937 0 1 0 0-1.875h-3.438a.937.937 0 0 0-.723.34L20.75 17l-2.24-4.89Z"/></svg>