<svg width="22" height="22" fill="none" xmlns="http://www.w3.org/2000/svg"><path d="M10.313 17.417c0-.38.308-.688.688-.688h5.5a.23.23 0 0 0 .229-.229v-11a.23.23 0 0 0-.23-.229H11a.687.687 0 0 1 0-1.375h5.5c.887 0 1.605.718 1.605 1.604v11c0 .886-.718 1.604-1.604 1.604H11a.687.687 0 0 1-.688-.687Z" fill="#fff"/><path d="M3.209 12.022c0 .507.41.917.917.917h4.451c.021.326.047.652.079.977l.027.28a.658.658 0 0 0 .94.53A15.439 15.439 0 0 0 14.1 11.48l.028-.028a.661.661 0 0 0 0-.915l-.028-.028a15.439 15.439 0 0 0-4.477-3.244.658.658 0 0 0-.94.53l-.027.28c-.032.325-.058.65-.079.976H4.126a.917.917 0 0 0-.917.917v2.053Z" fill="#fff"/></svg>