<svg width="22" height="22" viewBox="0 0 22 22" fill="none" xmlns="http://www.w3.org/2000/svg">
<path d="M11.0007 3.2085C6.69743 3.2085 3.20898 6.69694 3.20898 11.0002C3.20898 15.3034 6.69743 18.7918 11.0007 18.7918C15.0502 18.7918 18.3777 15.703 18.7564 11.7525C18.7741 11.5687 18.6796 11.3922 18.5168 11.3049C18.3541 11.2176 18.1548 11.2365 18.0114 11.3529C17.2234 11.9923 16.2198 12.3752 15.1257 12.3752C12.5943 12.3752 10.5423 10.3231 10.5423 7.79183C10.5423 6.2884 11.2657 4.95404 12.3854 4.11752C12.5334 4.00692 12.6005 3.81823 12.5556 3.63897C12.5107 3.45972 12.3626 3.32497 12.1799 3.29721C11.795 3.23877 11.4012 3.2085 11.0007 3.2085Z" fill="black"/>
</svg>
