<svg xmlns="http://www.w3.org/2000/svg" width="60" height="60" fill="none"><path fill="#299764" fill-rule="evenodd" d="m52.525 25.428.007 9.058a60.947 60.947 0 0 1-.247 2.584c-.168 1.439-1.337 2.6-2.806 2.763-4.6.514-9.359.514-13.958 0-1.469-.164-2.638-1.324-2.806-2.763a60.865 60.865 0 0 1 0-14.14c.168-1.439 1.337-2.6 2.806-2.763 4.6-.514 9.359-.514 13.958 0 1.469.164 2.638 1.324 2.806 2.763.098.831.178 1.664.24 2.498ZM42.5 26.25a3.75 3.75 0 1 0 0 7.5 3.75 3.75 0 0 0 0-7.5Z" clip-rule="evenodd"/><path fill="#299764" d="M51.009 15.1c.389.673-.34 1.426-1.113 1.34a67.111 67.111 0 0 0-14.792 0c-3.173.355-5.74 2.854-6.114 6.054a64.62 64.62 0 0 0 0 15.012c.375 3.2 2.941 5.7 6.114 6.054 4.877.545 9.916.545 14.792 0 .777-.087 1.513.672 1.12 1.35a12.428 12.428 0 0 1-9.449 6.124l-1.63.171c-8.277.871-16.625.814-24.89-.171l-1.08-.129a9.828 9.828 0 0 1-8.578-8.459 94.102 94.102 0 0 1 0-24.892 9.828 9.828 0 0 1 8.578-8.459l1.08-.129a111.625 111.625 0 0 1 24.89-.17l1.63.17c4.036.425 7.5 2.772 9.442 6.133Z"/></svg>