<svg xmlns="http://www.w3.org/2000/svg" width="124" height="20" fill="none"><path fill="#299764" d="M10.721 2.497a.833.833 0 0 0-1.441 0L7.018 6.394c-.159.274-.433.46-.745.508l-4.24.64a.833.833 0 0 0-.406 1.465l3.157 2.617c.293.242.43.624.359.996l-.826 4.338a.833.833 0 0 0 1.207.893l3.991-2.101c.304-.16.667-.16.97 0l3.992 2.101a.833.833 0 0 0 1.207-.893l-.826-4.337a1.042 1.042 0 0 1 .358-.998l3.158-2.616a.833.833 0 0 0-.407-1.465l-4.239-.64a1.042 1.042 0 0 1-.745-.508L10.72 2.497Zm26 0a.833.833 0 0 0-1.441 0l-2.262 3.897c-.159.274-.433.46-.745.508l-4.24.64a.833.833 0 0 0-.406 1.465l3.157 2.617c.293.242.43.624.359.996l-.826 4.338a.833.833 0 0 0 1.207.893l3.991-2.101c.304-.16.667-.16.97 0l3.992 2.101a.833.833 0 0 0 1.207-.893l-.826-4.337a1.042 1.042 0 0 1 .359-.998l3.157-2.616a.833.833 0 0 0-.407-1.465l-4.239-.64a1.042 1.042 0 0 1-.745-.508L36.72 2.497Zm26 0a.833.833 0 0 0-1.441 0l-2.262 3.897c-.159.274-.433.46-.745.508l-4.24.64a.833.833 0 0 0-.406 1.465l3.157 2.617c.293.242.43.624.359.996l-.826 4.338a.833.833 0 0 0 1.207.893l3.991-2.101c.304-.16.667-.16.97 0l3.992 2.101a.833.833 0 0 0 1.207-.893l-.826-4.337a1.042 1.042 0 0 1 .358-.998l3.158-2.616a.833.833 0 0 0-.407-1.465l-4.239-.64a1.042 1.042 0 0 1-.745-.508L62.72 2.497Zm26 0a.833.833 0 0 0-1.441 0l-2.262 3.897c-.159.274-.433.46-.746.508l-4.238.64a.833.833 0 0 0-.407 1.465l3.157 2.617c.293.242.43.624.359.996l-.826 4.338a.833.833 0 0 0 1.207.893l3.991-2.101c.304-.16.667-.16.97 0l3.992 2.101a.833.833 0 0 0 1.207-.893l-.826-4.337a1.042 1.042 0 0 1 .358-.998l3.158-2.616a.833.833 0 0 0-.407-1.465l-4.239-.64a1.042 1.042 0 0 1-.745-.508L88.72 2.497Zm26 0a.833.833 0 0 0-1.441 0l-2.262 3.897c-.159.274-.433.46-.745.508l-4.239.64a.833.833 0 0 0-.407 1.465l3.157 2.617c.293.242.43.624.359.996l-.826 4.338a.833.833 0 0 0 1.207.893l3.991-2.101c.304-.16.667-.16.971 0l3.991 2.101a.833.833 0 0 0 1.207-.893l-.826-4.337a1.04 1.04 0 0 1 .359-.998l3.157-2.616a.833.833 0 0 0-.407-1.465l-4.239-.64a1.043 1.043 0 0 1-.745-.508l-2.262-3.897Z"/></svg>