<svg width="22" height="22" fill="none" xmlns="http://www.w3.org/2000/svg"><path d="M11 1.146c.38 0 .688.308.688.687v.917a.688.688 0 0 1-1.376 0v-.917c0-.38.308-.687.688-.687ZM11 5.73a5.27 5.27 0 1 0 0 10.54 5.27 5.27 0 0 0 0-10.54ZM5.004 4.032a.688.688 0 0 0-.972.972l.648.648a.687.687 0 1 0 .973-.972l-.649-.648ZM20.854 11c0 .38-.308.687-.687.687h-.917a.687.687 0 1 1 0-1.375h.917c.38 0 .687.308.687.688ZM17.968 5.004a.687.687 0 1 0-.972-.972l-.648.648a.687.687 0 0 0 .972.972l.648-.648ZM11 18.562c.38 0 .688.308.688.688v.917a.687.687 0 1 1-1.376 0v-.917c0-.38.308-.688.688-.688ZM17.32 16.347a.688.688 0 1 0-.973.973l.649.648a.688.688 0 0 0 .972-.972l-.648-.649ZM3.437 11c0 .38-.307.687-.687.687h-.917a.688.688 0 0 1 0-1.375h.917c.38 0 .687.308.687.688ZM5.652 17.32a.688.688 0 0 0-.972-.973l-.648.649a.688.688 0 0 0 .972.972l.648-.648Z" fill="#fff"/></svg>