<svg xmlns="http://www.w3.org/2000/svg" width="60" height="60" fill="none"><path fill="#fff" d="M25 9.375a9.375 9.375 0 1 0 0 18.75 9.375 9.375 0 1 0 0-18.75Zm-10 23.75A9.375 9.375 0 0 0 5.625 42.5v2.97a3.842 3.842 0 0 0 3.223 3.793A100.24 100.24 0 0 0 25.54 50.57c.39-.002.627-.434.436-.774a17.42 17.42 0 0 1-2.226-8.547c0-1.968.325-3.86.924-5.625a.533.533 0 0 0-.479-.7 18.12 18.12 0 0 1-4.821-.877l-2.164-.707a4.374 4.374 0 0 0-1.358-.216H15ZM43.125 37.5a1.875 1.875 0 0 0-3.75 0v4.432c0 .6.287 1.163.772 1.516l2.5 1.818a1.875 1.875 0 1 0 2.206-3.032l-1.728-1.257V37.5Z"/><path fill="#fff" fill-rule="evenodd" d="M41.25 55C48.844 55 55 48.844 55 41.25S48.844 27.5 41.25 27.5 27.5 33.656 27.5 41.25 33.656 55 41.25 55Zm0-3.75c5.523 0 10-4.477 10-10s-4.477-10-10-10-10 4.477-10 10 4.477 10 10 10Z" clip-rule="evenodd"/></svg>